# xmcd CD database file
#
# Track frame offsets:
#	150
#	9747
#	31382
#	53067
#	74627
#
# Disc length: 1094 seconds
#
# Revision: 0
# Processed by: cddbd v1.5.1PL2 Copyright (c) Steve Scherf et al.
# Submitted via: CDex 1.51
#
DISCID=40044405
DTITLE=杉原真奈美（豊嶋真千子） - センチメンタルグラフティ　県立白井坂高校　杉原真奈美　オリーブの嵐
DYEAR=1900
DGENRE=ゲーム関連
TTITLE0=杉原真奈美（豊嶋真千子）、高戸靖広/プロローグドラマ
TTITLE1=杉原真奈美（豊嶋真千子） and TIGER-G/オリーブの嵐
TTITLE2=杉原真奈美（豊嶋真千子）/オリーブの嵐【男性Vocal Off Version】
TTITLE3=杉原真奈美（豊嶋真千子） and TIGER-G/オリーブの嵐【Remix Version】
TTITLE4=ボーナストラック：ボイス・メッセージ
EXTD=
EXTT0=
EXTT1=
EXTT2=
EXTT3=
EXTT4=
PLAYORDER=
